<svg xmlns="http://www.w3.org/2000/svg" xmlns:xlink="http://www.w3.org/1999/xlink" width="500" zoomAndPan="magnify" viewBox="0 0 375 374.999991" height="500" preserveAspectRatio="xMidYMid meet" version="1.0"><defs><filter x="0%" y="0%" width="100%" height="100%" id="a0614606bc"><feColorMatrix values="0 0 0 0 1 0 0 0 0 1 0 0 0 0 1 0 0 0 1 0" color-interpolation-filters="sRGB"/></filter><g/><clipPath id="f23279758d"><path d="M 55.046875 55.046875 L 323.34375 55.046875 L 323.34375 323.34375 L 55.046875 323.34375 Z M 55.046875 55.046875 " clip-rule="nonzero"/></clipPath><clipPath id="12f9fa4bb0"><path d="M 189.195312 55.046875 C 115.109375 55.046875 55.046875 115.109375 55.046875 189.195312 C 55.046875 263.285156 115.109375 323.34375 189.195312 323.34375 C 263.285156 323.34375 323.34375 263.285156 323.34375 189.195312 C 323.34375 115.109375 263.285156 55.046875 189.195312 55.046875 Z M 189.195312 55.046875 " clip-rule="nonzero"/></clipPath><clipPath id="cca13db657"><path d="M 0.046875 0.046875 L 268.34375 0.046875 L 268.34375 268.34375 L 0.046875 268.34375 Z M 0.046875 0.046875 " clip-rule="nonzero"/></clipPath><clipPath id="cd198d4e8e"><path d="M 134.195312 0.046875 C 60.109375 0.046875 0.046875 60.109375 0.046875 134.195312 C 0.046875 208.285156 60.109375 268.34375 134.195312 268.34375 C 208.285156 268.34375 268.34375 208.285156 268.34375 134.195312 C 268.34375 60.109375 208.285156 0.046875 134.195312 0.046875 Z M 134.195312 0.046875 " clip-rule="nonzero"/></clipPath><linearGradient x1="0" gradientTransform="matrix(1.048026, 0, 0, 1.048026, 0.0486789, 0.0486744)" y1="128" x2="256" gradientUnits="userSpaceOnUse" y2="128" id="f46df9ac91"><stop stop-opacity="1" stop-color="rgb(0%, 59.21936%, 69.799805%)" offset="0"/><stop stop-opacity="1" stop-color="rgb(0.192261%, 59.320068%, 69.659424%)" offset="0.0078125"/><stop stop-opacity="1" stop-color="rgb(0.576782%, 59.521484%, 69.380188%)" offset="0.015625"/><stop stop-opacity="1" stop-color="rgb(0.96283%, 59.724426%, 69.102478%)" offset="0.0234375"/><stop stop-opacity="1" stop-color="rgb(1.348877%, 59.925842%, 68.823242%)" offset="0.03125"/><stop stop-opacity="1" stop-color="rgb(1.734924%, 60.128784%, 68.544006%)" offset="0.0390625"/><stop stop-opacity="1" stop-color="rgb(2.120972%, 60.3302%, 68.266296%)" offset="0.046875"/><stop stop-opacity="1" stop-color="rgb(2.507019%, 60.533142%, 67.987061%)" offset="0.0546875"/><stop stop-opacity="1" stop-color="rgb(2.893066%, 60.734558%, 67.707825%)" offset="0.0625"/><stop stop-opacity="1" stop-color="rgb(3.279114%, 60.9375%, 67.428589%)" offset="0.0703125"/><stop stop-opacity="1" stop-color="rgb(3.665161%, 61.138916%, 67.150879%)" offset="0.078125"/><stop stop-opacity="1" stop-color="rgb(4.051208%, 61.341858%, 66.871643%)" offset="0.0859375"/><stop stop-opacity="1" stop-color="rgb(4.437256%, 61.543274%, 66.592407%)" offset="0.09375"/><stop stop-opacity="1" stop-color="rgb(4.823303%, 61.746216%, 66.314697%)" offset="0.101563"/><stop stop-opacity="1" stop-color="rgb(5.209351%, 61.947632%, 66.035461%)" offset="0.109375"/><stop stop-opacity="1" stop-color="rgb(5.595398%, 62.150574%, 65.756226%)" offset="0.117188"/><stop stop-opacity="1" stop-color="rgb(5.981445%, 62.353516%, 65.478516%)" offset="0.125"/><stop stop-opacity="1" stop-color="rgb(6.367493%, 62.554932%, 65.19928%)" offset="0.132812"/><stop stop-opacity="1" stop-color="rgb(6.75354%, 62.757874%, 64.920044%)" offset="0.140625"/><stop stop-opacity="1" stop-color="rgb(7.139587%, 62.95929%, 64.642334%)" offset="0.148438"/><stop stop-opacity="1" stop-color="rgb(7.525635%, 63.162231%, 64.363098%)" offset="0.15625"/><stop stop-opacity="1" stop-color="rgb(7.911682%, 63.363647%, 64.083862%)" offset="0.164062"/><stop stop-opacity="1" stop-color="rgb(8.297729%, 63.566589%, 63.806152%)" offset="0.171875"/><stop stop-opacity="1" stop-color="rgb(8.683777%, 63.768005%, 63.526917%)" offset="0.179688"/><stop stop-opacity="1" stop-color="rgb(9.069824%, 63.970947%, 63.247681%)" offset="0.1875"/><stop stop-opacity="1" stop-color="rgb(9.455872%, 64.172363%, 62.969971%)" offset="0.195312"/><stop stop-opacity="1" stop-color="rgb(9.841919%, 64.375305%, 62.690735%)" offset="0.203125"/><stop stop-opacity="1" stop-color="rgb(10.227966%, 64.576721%, 62.411499%)" offset="0.210938"/><stop stop-opacity="1" stop-color="rgb(10.614014%, 64.779663%, 62.133789%)" offset="0.21875"/><stop stop-opacity="1" stop-color="rgb(11.000061%, 64.981079%, 61.854553%)" offset="0.226562"/><stop stop-opacity="1" stop-color="rgb(11.386108%, 65.184021%, 61.575317%)" offset="0.234375"/><stop stop-opacity="1" stop-color="rgb(11.772156%, 65.385437%, 61.296082%)" offset="0.242188"/><stop stop-opacity="1" stop-color="rgb(12.158203%, 65.588379%, 61.018372%)" offset="0.25"/><stop stop-opacity="1" stop-color="rgb(12.54425%, 65.789795%, 60.739136%)" offset="0.257812"/><stop stop-opacity="1" stop-color="rgb(12.930298%, 65.992737%, 60.4599%)" offset="0.265625"/><stop stop-opacity="1" stop-color="rgb(13.316345%, 66.194153%, 60.18219%)" offset="0.273438"/><stop stop-opacity="1" stop-color="rgb(13.702393%, 66.397095%, 59.902954%)" offset="0.28125"/><stop stop-opacity="1" stop-color="rgb(14.08844%, 66.598511%, 59.623718%)" offset="0.289062"/><stop stop-opacity="1" stop-color="rgb(14.474487%, 66.801453%, 59.346008%)" offset="0.296875"/><stop stop-opacity="1" stop-color="rgb(14.860535%, 67.002869%, 59.066772%)" offset="0.304688"/><stop stop-opacity="1" stop-color="rgb(15.246582%, 67.205811%, 58.787537%)" offset="0.3125"/><stop stop-opacity="1" stop-color="rgb(15.632629%, 67.407227%, 58.509827%)" offset="0.320313"/><stop stop-opacity="1" stop-color="rgb(16.018677%, 67.610168%, 58.230591%)" offset="0.328125"/><stop stop-opacity="1" stop-color="rgb(16.404724%, 67.811584%, 57.951355%)" offset="0.335937"/><stop stop-opacity="1" stop-color="rgb(16.790771%, 68.014526%, 57.673645%)" offset="0.34375"/><stop stop-opacity="1" stop-color="rgb(17.176819%, 68.215942%, 57.394409%)" offset="0.351562"/><stop stop-opacity="1" stop-color="rgb(17.562866%, 68.418884%, 57.115173%)" offset="0.359375"/><stop stop-opacity="1" stop-color="rgb(17.948914%, 68.6203%, 56.837463%)" offset="0.367188"/><stop stop-opacity="1" stop-color="rgb(18.334961%, 68.823242%, 56.558228%)" offset="0.375"/><stop stop-opacity="1" stop-color="rgb(18.721008%, 69.024658%, 56.278992%)" offset="0.382812"/><stop stop-opacity="1" stop-color="rgb(19.10553%, 69.2276%, 56.001282%)" offset="0.390625"/><stop stop-opacity="1" stop-color="rgb(19.491577%, 69.429016%, 55.722046%)" offset="0.398438"/><stop stop-opacity="1" stop-color="rgb(19.877625%, 69.631958%, 55.44281%)" offset="0.40625"/><stop stop-opacity="1" stop-color="rgb(20.263672%, 69.833374%, 55.1651%)" offset="0.414063"/><stop stop-opacity="1" stop-color="rgb(20.649719%, 70.036316%, 54.885864%)" offset="0.421875"/><stop stop-opacity="1" stop-color="rgb(21.035767%, 70.237732%, 54.606628%)" offset="0.429688"/><stop stop-opacity="1" stop-color="rgb(21.421814%, 70.440674%, 54.327393%)" offset="0.4375"/><stop stop-opacity="1" stop-color="rgb(21.807861%, 70.64209%, 54.049683%)" offset="0.445312"/><stop stop-opacity="1" stop-color="rgb(22.193909%, 70.845032%, 53.770447%)" offset="0.453125"/><stop stop-opacity="1" stop-color="rgb(22.579956%, 71.046448%, 53.491211%)" offset="0.460937"/><stop stop-opacity="1" stop-color="rgb(22.966003%, 71.24939%, 53.213501%)" offset="0.46875"/><stop stop-opacity="1" stop-color="rgb(23.352051%, 71.450806%, 52.934265%)" offset="0.476562"/><stop stop-opacity="1" stop-color="rgb(23.738098%, 71.653748%, 52.655029%)" offset="0.484375"/><stop stop-opacity="1" stop-color="rgb(24.124146%, 71.855164%, 52.377319%)" offset="0.492188"/><stop stop-opacity="1" stop-color="rgb(24.510193%, 72.058105%, 52.098083%)" offset="0.5"/><stop stop-opacity="1" stop-color="rgb(24.89624%, 72.259521%, 51.818848%)" offset="0.507812"/><stop stop-opacity="1" stop-color="rgb(25.282288%, 72.462463%, 51.541138%)" offset="0.515625"/><stop stop-opacity="1" stop-color="rgb(25.668335%, 72.663879%, 51.261902%)" offset="0.523438"/><stop stop-opacity="1" stop-color="rgb(26.054382%, 72.866821%, 50.982666%)" offset="0.53125"/><stop stop-opacity="1" stop-color="rgb(26.44043%, 73.068237%, 50.704956%)" offset="0.539062"/><stop stop-opacity="1" stop-color="rgb(26.826477%, 73.271179%, 50.42572%)" offset="0.546875"/><stop stop-opacity="1" stop-color="rgb(27.212524%, 73.472595%, 50.146484%)" offset="0.554688"/><stop stop-opacity="1" stop-color="rgb(27.598572%, 73.675537%, 49.868774%)" offset="0.5625"/><stop stop-opacity="1" stop-color="rgb(27.984619%, 73.876953%, 49.589539%)" offset="0.570312"/><stop stop-opacity="1" stop-color="rgb(28.370667%, 74.079895%, 49.310303%)" offset="0.578125"/><stop stop-opacity="1" stop-color="rgb(28.756714%, 74.281311%, 49.032593%)" offset="0.585937"/><stop stop-opacity="1" stop-color="rgb(29.142761%, 74.484253%, 48.753357%)" offset="0.59375"/><stop stop-opacity="1" stop-color="rgb(29.528809%, 74.685669%, 48.474121%)" offset="0.601562"/><stop stop-opacity="1" stop-color="rgb(29.914856%, 74.888611%, 48.194885%)" offset="0.609375"/><stop stop-opacity="1" stop-color="rgb(30.300903%, 75.090027%, 47.917175%)" offset="0.617188"/><stop stop-opacity="1" stop-color="rgb(30.686951%, 75.292969%, 47.637939%)" offset="0.625"/><stop stop-opacity="1" stop-color="rgb(31.072998%, 75.494385%, 47.358704%)" offset="0.632813"/><stop stop-opacity="1" stop-color="rgb(31.459045%, 75.697327%, 47.080994%)" offset="0.640625"/><stop stop-opacity="1" stop-color="rgb(31.845093%, 75.898743%, 46.801758%)" offset="0.648438"/><stop stop-opacity="1" stop-color="rgb(32.23114%, 76.101685%, 46.522522%)" offset="0.65625"/><stop stop-opacity="1" stop-color="rgb(32.617188%, 76.303101%, 46.244812%)" offset="0.664062"/><stop stop-opacity="1" stop-color="rgb(33.003235%, 76.506042%, 45.965576%)" offset="0.671875"/><stop stop-opacity="1" stop-color="rgb(33.389282%, 76.707458%, 45.68634%)" offset="0.679688"/><stop stop-opacity="1" stop-color="rgb(33.77533%, 76.9104%, 45.40863%)" offset="0.6875"/><stop stop-opacity="1" stop-color="rgb(34.161377%, 77.111816%, 45.129395%)" offset="0.695312"/><stop stop-opacity="1" stop-color="rgb(34.547424%, 77.314758%, 44.850159%)" offset="0.703125"/><stop stop-opacity="1" stop-color="rgb(34.933472%, 77.516174%, 44.572449%)" offset="0.710938"/><stop stop-opacity="1" stop-color="rgb(35.319519%, 77.719116%, 44.293213%)" offset="0.71875"/><stop stop-opacity="1" stop-color="rgb(35.705566%, 77.920532%, 44.013977%)" offset="0.726563"/><stop stop-opacity="1" stop-color="rgb(36.091614%, 78.123474%, 43.736267%)" offset="0.734375"/><stop stop-opacity="1" stop-color="rgb(36.477661%, 78.32489%, 43.457031%)" offset="0.742188"/><stop stop-opacity="1" stop-color="rgb(36.863708%, 78.527832%, 43.177795%)" offset="0.75"/><stop stop-opacity="1" stop-color="rgb(37.249756%, 78.729248%, 42.900085%)" offset="0.757812"/><stop stop-opacity="1" stop-color="rgb(37.634277%, 78.93219%, 42.62085%)" offset="0.765625"/><stop stop-opacity="1" stop-color="rgb(38.020325%, 79.133606%, 42.341614%)" offset="0.773438"/><stop stop-opacity="1" stop-color="rgb(38.406372%, 79.336548%, 42.062378%)" offset="0.78125"/><stop stop-opacity="1" stop-color="rgb(38.792419%, 79.537964%, 41.784668%)" offset="0.789062"/><stop stop-opacity="1" stop-color="rgb(39.178467%, 79.740906%, 41.505432%)" offset="0.796875"/><stop stop-opacity="1" stop-color="rgb(39.564514%, 79.942322%, 41.226196%)" offset="0.804688"/><stop stop-opacity="1" stop-color="rgb(39.950562%, 80.145264%, 40.948486%)" offset="0.8125"/><stop stop-opacity="1" stop-color="rgb(40.336609%, 80.348206%, 40.66925%)" offset="0.820313"/><stop stop-opacity="1" stop-color="rgb(40.722656%, 80.549622%, 40.390015%)" offset="0.828125"/><stop stop-opacity="1" stop-color="rgb(41.108704%, 80.752563%, 40.112305%)" offset="0.835938"/><stop stop-opacity="1" stop-color="rgb(41.494751%, 80.953979%, 39.833069%)" offset="0.84375"/><stop stop-opacity="1" stop-color="rgb(41.880798%, 81.156921%, 39.553833%)" offset="0.851562"/><stop stop-opacity="1" stop-color="rgb(42.266846%, 81.358337%, 39.276123%)" offset="0.859375"/><stop stop-opacity="1" stop-color="rgb(42.652893%, 81.561279%, 38.996887%)" offset="0.867188"/><stop stop-opacity="1" stop-color="rgb(43.03894%, 81.762695%, 38.717651%)" offset="0.875"/><stop stop-opacity="1" stop-color="rgb(43.424988%, 81.965637%, 38.439941%)" offset="0.882812"/><stop stop-opacity="1" stop-color="rgb(43.811035%, 82.167053%, 38.160706%)" offset="0.890625"/><stop stop-opacity="1" stop-color="rgb(44.197083%, 82.369995%, 37.88147%)" offset="0.898438"/><stop stop-opacity="1" stop-color="rgb(44.58313%, 82.571411%, 37.60376%)" offset="0.90625"/><stop stop-opacity="1" stop-color="rgb(44.969177%, 82.774353%, 37.324524%)" offset="0.914062"/><stop stop-opacity="1" stop-color="rgb(45.355225%, 82.975769%, 37.045288%)" offset="0.921875"/><stop stop-opacity="1" stop-color="rgb(45.741272%, 83.178711%, 36.767578%)" offset="0.929687"/><stop stop-opacity="1" stop-color="rgb(46.127319%, 83.380127%, 36.488342%)" offset="0.9375"/><stop stop-opacity="1" stop-color="rgb(46.513367%, 83.583069%, 36.209106%)" offset="0.945312"/><stop stop-opacity="1" stop-color="rgb(46.899414%, 83.784485%, 35.929871%)" offset="0.953125"/><stop stop-opacity="1" stop-color="rgb(47.285461%, 83.987427%, 35.652161%)" offset="0.960938"/><stop stop-opacity="1" stop-color="rgb(47.671509%, 84.188843%, 35.372925%)" offset="0.96875"/><stop stop-opacity="1" stop-color="rgb(48.057556%, 84.391785%, 35.093689%)" offset="0.976562"/><stop stop-opacity="1" stop-color="rgb(48.443604%, 84.593201%, 34.815979%)" offset="0.984375"/><stop stop-opacity="1" stop-color="rgb(48.829651%, 84.796143%, 34.536743%)" offset="0.992188"/><stop stop-opacity="1" stop-color="rgb(49.215698%, 84.997559%, 34.257507%)" offset="1"/></linearGradient><clipPath id="9fd16988c6"><rect x="0" width="269" y="0" height="269"/></clipPath><clipPath id="5af4630071"><path d="M 55.046875 55.046875 L 323.335938 55.046875 L 323.335938 323.335938 L 55.046875 323.335938 Z M 55.046875 55.046875 " clip-rule="nonzero"/></clipPath><clipPath id="486a2d3f61"><path d="M 189.191406 55.046875 C 115.105469 55.046875 55.046875 115.105469 55.046875 189.191406 C 55.046875 263.277344 115.105469 323.335938 189.191406 323.335938 C 263.277344 323.335938 323.335938 263.277344 323.335938 189.191406 C 323.335938 115.105469 263.277344 55.046875 189.191406 55.046875 Z M 189.191406 55.046875 " clip-rule="nonzero"/></clipPath><clipPath id="b052f3be93"><rect x="0" width="219" y="0" height="329"/></clipPath><mask id="388a2bf15c"><g filter="url(#a0614606bc)"><rect x="-37.5" width="450" fill="#000000" y="-37.499999" height="449.999989" fill-opacity="0.9"/></g></mask><clipPath id="a88d970471"><rect x="0" width="175" y="0" height="330"/></clipPath></defs><g clip-path="url(#f23279758d)"><g clip-path="url(#12f9fa4bb0)"><g transform="matrix(1, 0, 0, 1, 55, 55)"><g clip-path="url(#9fd16988c6)"><g clip-path="url(#cca13db657)"><g clip-path="url(#cd198d4e8e)"><path fill="url(#f46df9ac91)" d="M 0.046875 0.046875 L 0.046875 268.34375 L 268.34375 268.34375 L 268.34375 0.046875 Z M 0.046875 0.046875 " fill-rule="nonzero"/></g></g></g></g></g></g><g clip-path="url(#5af4630071)"><g clip-path="url(#486a2d3f61)"><path fill="#000000" d="M 144.136719 95.265625 C 137.125 98.636719 130.558594 102.753906 124.441406 107.617188 L 87.101562 60.652344 C 96.730469 52.996094 107.078125 46.507812 118.136719 41.191406 Z M 107.9375 124.042969 C 103.042969 130.136719 98.894531 136.679688 95.488281 143.675781 L 41.542969 117.410156 C 46.914062 106.378906 53.453125 96.066406 61.15625 86.472656 Z M 87.738281 165.546875 C 85.984375 173.109375 85.089844 180.820312 85.050781 188.671875 L 25.050781 188.382812 C 25.109375 176.046875 26.523438 163.917969 29.289062 151.992188 Z M 87.511719 211.84375 C 89.195312 219.4375 91.707031 226.753906 95.042969 233.789062 L 40.84375 259.519531 C 35.5625 248.398438 31.59375 236.828125 28.929688 224.816406 Z M 107.300781 253.542969 C 112.128906 259.679688 117.578125 265.207031 123.644531 270.128906 L 85.847656 316.726562 C 76.3125 308.992188 67.746094 300.300781 60.152344 290.652344 Z M 143.21875 282.675781 C 150.203125 286.117188 157.480469 288.738281 165.046875 290.53125 L 151.203125 348.914062 C 139.234375 346.074219 127.730469 341.933594 116.6875 336.488281 Z M 188.007812 293.332031 L 189.339844 293.339844 C 196.75 293.335938 204.085938 292.554688 211.339844 290.984375 L 224.023438 349.628906 C 212.589844 352.101562 200.929688 353.335938 189.046875 353.335938 L 187.71875 353.332031 Z M 233.324219 283.558594 C 240.371094 280.257812 246.976562 276.203125 253.140625 271.402344 L 290.019531 318.730469 C 280.3125 326.292969 269.902344 332.679688 258.789062 337.886719 Z M 269.804688 255.136719 C 274.757812 249.09375 278.972656 242.589844 282.449219 235.625 L 336.132812 262.421875 C 330.652344 273.398438 324.011719 283.648438 316.21875 293.164062 Z M 290.410156 213.835938 C 292.242188 206.292969 293.210938 198.597656 293.328125 190.75 L 353.320312 191.625 C 353.140625 203.953125 351.609375 216.070312 348.722656 227.96875 Z M 291.089844 167.546875 C 289.484375 159.933594 287.046875 152.589844 283.773438 145.523438 L 338.230469 120.328125 C 343.398438 131.503906 347.257812 143.113281 349.796875 155.15625 Z M 271.714844 125.652344 C 266.945312 119.46875 261.550781 113.886719 255.53125 108.90625 L 293.785156 62.679688 C 303.246094 70.507812 311.722656 79.285156 319.222656 89.003906 Z M 236.082031 96.167969 C 229.128906 92.65625 221.878906 89.964844 214.332031 88.097656 L 228.753906 29.855469 C 240.691406 32.8125 252.152344 37.066406 263.140625 42.617188 Z M 191.269531 85.070312 C 190.578125 85.054688 189.886719 85.046875 189.191406 85.046875 C 181.335938 85.046875 173.617188 85.90625 166.042969 87.625 L 152.78125 29.109375 C 164.71875 26.402344 176.859375 25.046875 189.191406 25.046875 C 190.273438 25.046875 191.355469 25.058594 192.433594 25.082031 Z M 191.269531 85.070312 " fill-opacity="1" fill-rule="nonzero"/></g></g><g transform="matrix(1, 0, 0, 1, 88, 46)"><g clip-path="url(#b052f3be93)"><g fill="#5e17eb" fill-opacity="1"><g transform="translate(16.349102, 229.252049)"><g><path d="M 116.65625 -185.0625 C 145.351562 -185.0625 166.539062 -179.546875 180.21875 -168.515625 C 193.894531 -157.492188 200.734375 -141.867188 200.734375 -121.640625 C 200.734375 -114.015625 199.363281 -106.300781 196.625 -98.5 C 193.894531 -90.707031 189.75 -83.535156 184.1875 -76.984375 C 178.632812 -70.429688 171.671875 -65.207031 163.296875 -61.3125 C 154.929688 -57.414062 145.191406 -55.46875 134.078125 -55.46875 C 128.609375 -55.46875 124.421875 -56.085938 121.515625 -57.328125 C 118.609375 -58.578125 116.285156 -59.78125 114.546875 -60.9375 C 112.804688 -62.101562 110.859375 -62.6875 108.703125 -62.6875 C 106.210938 -62.6875 104.222656 -61.523438 102.734375 -59.203125 L 101.484375 -56.71875 L 102.234375 -58.453125 L 101.484375 -56.71875 C 96.679688 -44.113281 90.628906 -32.710938 83.328125 -22.515625 C 76.035156 -12.316406 67.742188 -4.273438 58.453125 1.609375 C 49.171875 7.503906 39.140625 10.453125 28.359375 10.453125 C 18.742188 10.453125 10.90625 8.457031 4.84375 4.46875 C -1.207031 0.488281 -5.597656 -4.644531 -8.328125 -10.9375 C -11.066406 -17.238281 -12.4375 -23.789062 -12.4375 -30.59375 C -12.4375 -37.5625 -11.066406 -44.195312 -8.328125 -50.5 C -5.597656 -56.800781 -1.742188 -61.941406 3.234375 -65.921875 C 8.210938 -69.898438 14.015625 -71.890625 20.640625 -71.890625 C 23.128906 -71.890625 24.375 -70.894531 24.375 -68.90625 C 24.375 -63.425781 26.40625 -58.988281 30.46875 -55.59375 C 34.53125 -52.195312 39.460938 -50.5 45.265625 -50.5 C 52.066406 -50.5 59.65625 -53.851562 68.03125 -60.5625 C 76.40625 -67.28125 83.492188 -78.101562 89.296875 -93.03125 C 91.453125 -98.664062 93.648438 -104.507812 95.890625 -110.5625 C 98.128906 -116.625 100.328125 -122.304688 102.484375 -127.609375 C 104.140625 -131.921875 106.335938 -134.988281 109.078125 -136.8125 C 111.816406 -138.632812 115.007812 -139.546875 118.65625 -139.546875 C 123.957031 -139.546875 127.4375 -138.34375 129.09375 -135.9375 C 130.757812 -133.53125 130.925781 -130.253906 129.59375 -126.109375 C 127.769531 -120.640625 126.15625 -115.914062 124.75 -111.9375 C 123.34375 -107.957031 122.222656 -104.390625 121.390625 -101.234375 L 122.140625 -102.984375 C 120.484375 -98.003906 120.359375 -94.351562 121.765625 -92.03125 C 123.171875 -89.71875 126.613281 -88.5625 132.09375 -88.5625 C 136.726562 -88.5625 141.242188 -89.84375 145.640625 -92.40625 C 150.035156 -94.976562 153.679688 -98.707031 156.578125 -103.59375 C 159.484375 -108.488281 160.9375 -114.503906 160.9375 -121.640625 C 160.9375 -132.421875 157.164062 -140.128906 149.625 -144.765625 C 142.082031 -149.410156 131.425781 -151.734375 117.65625 -151.734375 C 108.039062 -151.734375 99.171875 -150.613281 91.046875 -148.375 C 82.921875 -146.132812 76.367188 -142.609375 71.390625 -137.796875 C 66.410156 -132.992188 63.921875 -126.78125 63.921875 -119.15625 C 63.921875 -115.832031 64.832031 -113.050781 66.65625 -110.8125 C 68.488281 -108.570312 70.726562 -107.453125 73.375 -107.453125 C 74.539062 -104.804688 74.625 -101.613281 73.625 -97.875 C 72.632812 -94.144531 70.6875 -90.582031 67.78125 -87.1875 C 64.882812 -83.789062 61.15625 -80.929688 56.59375 -78.609375 C 52.03125 -76.285156 46.765625 -75.125 40.796875 -75.125 C 33.992188 -75.125 28.269531 -76.738281 23.625 -79.96875 C 18.988281 -83.207031 15.507812 -87.476562 13.1875 -92.78125 C 10.863281 -98.09375 9.703125 -103.734375 9.703125 -109.703125 C 9.703125 -119.984375 12.1875 -129.640625 17.15625 -138.671875 C 22.132812 -147.710938 29.265625 -155.710938 38.546875 -162.671875 C 47.835938 -169.640625 59.070312 -175.113281 72.25 -179.09375 C 85.4375 -183.070312 100.238281 -185.0625 116.65625 -185.0625 Z M 116.65625 -185.0625 "/></g></g></g></g></g><g mask="url(#388a2bf15c)"><g transform="matrix(1, 0, 0, 1, 106, 45)"><g clip-path="url(#a88d970471)"><g fill="#000000" fill-opacity="1"><g transform="translate(16.67823, 230.522685)"><g><path d="M 39.71875 10.484375 C 28.226562 10.484375 18.609375 8.441406 10.859375 4.359375 C 3.117188 0.285156 -2.703125 -5.242188 -6.609375 -12.234375 C -10.523438 -19.234375 -12.484375 -26.976562 -12.484375 -35.46875 C -12.484375 -42.125 -11.191406 -48.40625 -8.609375 -54.3125 C -6.035156 -60.226562 -2.460938 -65.101562 2.109375 -68.9375 C 6.691406 -72.769531 12.066406 -74.6875 18.234375 -74.6875 C 20.734375 -74.6875 21.984375 -73.6875 21.984375 -71.6875 C 21.984375 -65.519531 24.601562 -60.476562 29.84375 -56.5625 C 35.09375 -52.65625 41.546875 -50.703125 49.203125 -50.703125 C 54.703125 -50.703125 60.488281 -52.15625 66.5625 -55.0625 C 72.632812 -57.976562 78.5 -62.597656 84.15625 -68.921875 C 89.820312 -75.253906 94.570312 -83.414062 98.40625 -93.40625 C 102.070312 -102.90625 105.859375 -112.484375 109.765625 -122.140625 C 113.679688 -131.796875 116.972656 -139.703125 119.640625 -145.859375 C 111.816406 -147.523438 104.53125 -147.484375 97.78125 -145.734375 C 91.039062 -143.984375 85.628906 -140.773438 81.546875 -136.109375 C 77.460938 -131.453125 75.421875 -125.460938 75.421875 -118.140625 C 75.421875 -114.472656 76.335938 -111.429688 78.171875 -109.015625 C 80.003906 -106.609375 82.253906 -105.40625 84.921875 -105.40625 C 86.085938 -102.738281 86.171875 -99.53125 85.171875 -95.78125 C 84.171875 -92.039062 82.210938 -88.460938 79.296875 -85.046875 C 76.390625 -81.628906 72.644531 -78.753906 68.0625 -76.421875 C 63.476562 -74.097656 58.191406 -72.9375 52.203125 -72.9375 C 45.367188 -72.9375 39.617188 -74.472656 34.953125 -77.546875 C 30.296875 -80.628906 26.800781 -84.625 24.46875 -89.53125 C 22.144531 -94.445312 20.984375 -99.738281 20.984375 -105.40625 C 20.984375 -116.226562 23.1875 -126.507812 27.59375 -136.25 C 32.007812 -145.988281 38.335938 -154.5625 46.578125 -161.96875 C 54.816406 -169.382812 64.640625 -175.210938 76.046875 -179.453125 C 87.453125 -183.703125 100.148438 -185.828125 114.140625 -185.828125 C 131.460938 -185.828125 142.285156 -181.953125 146.609375 -174.203125 C 150.941406 -166.460938 150.691406 -155.929688 145.859375 -142.609375 C 144.359375 -138.117188 142.523438 -132.707031 140.359375 -126.375 C 138.203125 -120.050781 135.875 -113.265625 133.375 -106.015625 C 130.875 -98.773438 128.414062 -91.660156 126 -84.671875 C 123.59375 -77.679688 121.472656 -71.4375 119.640625 -65.9375 C 110.484375 -38.789062 99.492188 -19.265625 86.671875 -7.359375 C 73.847656 4.535156 58.195312 10.484375 39.71875 10.484375 Z M 39.71875 10.484375 "/></g></g></g></g></g></g></svg>