<svg xmlns="http://www.w3.org/2000/svg" xmlns:xlink="http://www.w3.org/1999/xlink" width="500" zoomAndPan="magnify" viewBox="0 0 375 374.999991" height="500" preserveAspectRatio="xMidYMid meet" version="1.0"><defs><filter x="0%" y="0%" width="100%" height="100%" id="9572a8a176"><feColorMatrix values="0 0 0 0 1 0 0 0 0 1 0 0 0 0 1 0 0 0 1 0" color-interpolation-filters="sRGB"/></filter><g/><clipPath id="e52f184140"><rect x="0" width="339" y="0" height="375"/></clipPath><mask id="0aaf4668c4"><g filter="url(#9572a8a176)"><rect x="-37.5" width="450" fill="#000000" y="-37.499999" height="449.999989" fill-opacity="0.9"/></g></mask><clipPath id="04f5e08290"><path d="M 0.320312 0 L 268.878906 0 L 268.878906 375 L 0.320312 375 Z M 0.320312 0 " clip-rule="nonzero"/></clipPath><clipPath id="e37428384e"><rect x="0" width="269" y="0" height="375"/></clipPath><clipPath id="862a6088ab"><rect x="0" width="269" y="0" height="375"/></clipPath></defs><g transform="matrix(1, 0, 0, 1, 18, 0)"><g clip-path="url(#e52f184140)"><g fill="#5e17eb" fill-opacity="1"><g transform="translate(24.8206, 327.506208)"><g><path d="M 180.734375 -286.703125 C 225.179688 -286.703125 258 -278.160156 279.1875 -261.078125 C 300.382812 -243.992188 310.984375 -219.78125 310.984375 -188.4375 C 310.984375 -176.625 308.863281 -164.675781 304.625 -152.59375 C 300.382812 -140.519531 293.960938 -129.410156 285.359375 -119.265625 C 276.753906 -109.117188 265.960938 -101.023438 252.984375 -94.984375 C 240.015625 -88.953125 224.921875 -85.9375 207.703125 -85.9375 C 199.222656 -85.9375 192.734375 -86.898438 188.234375 -88.828125 C 183.742188 -90.753906 180.148438 -92.613281 177.453125 -94.40625 C 174.753906 -96.207031 171.738281 -97.109375 168.40625 -97.109375 C 164.550781 -97.109375 161.46875 -95.3125 159.15625 -91.71875 L 157.234375 -87.859375 L 158.375 -90.5625 L 157.234375 -87.859375 C 149.773438 -68.335938 140.394531 -50.675781 129.09375 -34.875 C 117.789062 -19.070312 104.945312 -6.613281 90.5625 2.5 C 76.175781 11.625 60.632812 16.1875 43.9375 16.1875 C 29.03125 16.1875 16.890625 13.101562 7.515625 6.9375 C -1.859375 0.769531 -8.664062 -7.191406 -12.90625 -16.953125 C -17.144531 -26.710938 -19.265625 -36.863281 -19.265625 -47.40625 C -19.265625 -58.1875 -17.144531 -68.457031 -12.90625 -78.21875 C -8.664062 -87.988281 -2.691406 -95.957031 5.015625 -102.125 C 12.722656 -108.289062 21.710938 -111.375 31.984375 -111.375 C 35.835938 -111.375 37.765625 -109.832031 37.765625 -106.75 C 37.765625 -98.269531 40.910156 -91.394531 47.203125 -86.125 C 53.492188 -80.863281 61.140625 -78.234375 70.140625 -78.234375 C 80.671875 -78.234375 92.421875 -83.429688 105.390625 -93.828125 C 118.367188 -104.234375 129.351562 -121 138.34375 -144.125 C 141.6875 -152.863281 145.09375 -161.921875 148.5625 -171.296875 C 152.03125 -180.671875 155.429688 -189.46875 158.765625 -197.6875 C 161.335938 -204.363281 164.742188 -209.113281 168.984375 -211.9375 C 173.222656 -214.769531 178.164062 -216.1875 183.8125 -216.1875 C 192.03125 -216.1875 197.425781 -214.320312 200 -210.59375 C 202.570312 -206.875 202.828125 -201.800781 200.765625 -195.375 C 197.941406 -186.894531 195.4375 -179.570312 193.25 -173.40625 C 191.070312 -167.238281 189.34375 -161.71875 188.0625 -156.84375 L 189.21875 -159.53125 C 186.644531 -151.832031 186.445312 -146.179688 188.625 -142.578125 C 190.8125 -138.984375 196.144531 -137.1875 204.625 -137.1875 C 211.820312 -137.1875 218.820312 -139.175781 225.625 -143.15625 C 232.4375 -147.144531 238.085938 -152.925781 242.578125 -160.5 C 247.078125 -168.082031 249.328125 -177.394531 249.328125 -188.4375 C 249.328125 -205.132812 243.484375 -217.078125 231.796875 -224.265625 C 220.109375 -231.460938 203.601562 -235.0625 182.28125 -235.0625 C 167.375 -235.0625 153.625 -233.328125 141.03125 -229.859375 C 128.445312 -226.398438 118.300781 -220.941406 110.59375 -213.484375 C 102.882812 -206.035156 99.03125 -196.40625 99.03125 -184.59375 C 99.03125 -179.445312 100.441406 -175.140625 103.265625 -171.671875 C 106.097656 -168.203125 109.570312 -166.46875 113.6875 -166.46875 C 115.476562 -162.363281 115.601562 -157.421875 114.0625 -151.640625 C 112.519531 -145.859375 109.5 -140.332031 105 -135.0625 C 100.507812 -129.800781 94.734375 -125.367188 87.671875 -121.765625 C 80.609375 -118.171875 72.453125 -116.375 63.203125 -116.375 C 52.671875 -116.375 43.804688 -118.878906 36.609375 -123.890625 C 29.410156 -128.898438 24.015625 -135.515625 20.421875 -143.734375 C 16.828125 -151.960938 15.03125 -160.695312 15.03125 -169.9375 C 15.03125 -185.863281 18.882812 -200.828125 26.59375 -214.828125 C 34.300781 -228.835938 45.347656 -241.234375 59.734375 -252.015625 C 74.117188 -262.804688 91.519531 -271.285156 111.9375 -277.453125 C 132.363281 -283.617188 155.296875 -286.703125 180.734375 -286.703125 Z M 180.734375 -286.703125 "/></g></g></g></g></g><g mask="url(#0aaf4668c4)"><g transform="matrix(1, 0, 0, 1, 46, 0)"><g clip-path="url(#862a6088ab)"><g clip-path="url(#04f5e08290)"><g><g clip-path="url(#e37428384e)"><g fill="#000000" fill-opacity="1"><g transform="translate(25.2161, 327.925479)"><g><path d="M 61.53125 16.25 C 43.726562 16.25 28.828125 13.085938 16.828125 6.765625 C 4.835938 0.453125 -4.1875 -8.117188 -10.25 -18.953125 C -16.3125 -29.796875 -19.34375 -41.796875 -19.34375 -54.953125 C -19.34375 -65.265625 -17.34375 -75 -13.34375 -84.15625 C -9.351562 -93.320312 -3.8125 -100.867188 3.28125 -106.796875 C 10.382812 -112.734375 18.707031 -115.703125 28.25 -115.703125 C 32.113281 -115.703125 34.046875 -114.15625 34.046875 -111.0625 C 34.046875 -101.507812 38.109375 -93.703125 46.234375 -87.640625 C 54.367188 -81.578125 64.367188 -78.546875 76.234375 -78.546875 C 84.742188 -78.546875 93.707031 -80.800781 103.125 -85.3125 C 112.539062 -89.832031 121.632812 -96.992188 130.40625 -106.796875 C 139.175781 -116.597656 146.523438 -129.238281 152.453125 -144.71875 C 158.128906 -159.425781 164 -174.257812 170.0625 -189.21875 C 176.125 -204.175781 181.21875 -216.429688 185.34375 -225.984375 C 173.21875 -228.554688 161.929688 -228.488281 151.484375 -225.78125 C 141.046875 -223.070312 132.664062 -218.109375 126.34375 -210.890625 C 120.019531 -203.671875 116.859375 -194.382812 116.859375 -183.03125 C 116.859375 -177.351562 118.273438 -172.644531 121.109375 -168.90625 C 123.953125 -165.164062 127.4375 -163.296875 131.5625 -163.296875 C 133.363281 -159.171875 133.488281 -154.203125 131.9375 -148.390625 C 130.394531 -142.585938 127.363281 -137.039062 122.84375 -131.75 C 118.332031 -126.46875 112.53125 -122.019531 105.4375 -118.40625 C 98.34375 -114.789062 90.15625 -112.984375 80.875 -112.984375 C 70.300781 -112.984375 61.398438 -115.367188 54.171875 -120.140625 C 46.953125 -124.921875 41.535156 -131.113281 37.921875 -138.71875 C 34.304688 -146.332031 32.5 -154.523438 32.5 -163.296875 C 32.5 -180.066406 35.914062 -195.992188 42.75 -211.078125 C 49.59375 -226.171875 59.398438 -239.457031 72.171875 -250.9375 C 84.941406 -262.414062 100.160156 -271.441406 117.828125 -278.015625 C 135.492188 -284.597656 155.164062 -287.890625 176.84375 -287.890625 C 203.664062 -287.890625 220.429688 -281.890625 227.140625 -269.890625 C 233.847656 -257.898438 233.460938 -241.585938 225.984375 -220.953125 C 223.660156 -213.984375 220.820312 -205.597656 217.46875 -195.796875 C 214.113281 -185.992188 210.5 -175.476562 206.625 -164.25 C 202.757812 -153.03125 198.957031 -142.003906 195.21875 -131.171875 C 191.476562 -120.335938 188.1875 -110.664062 185.34375 -102.15625 C 171.15625 -60.101562 154.128906 -29.851562 134.265625 -11.40625 C 114.410156 7.03125 90.164062 16.25 61.53125 16.25 Z M 61.53125 16.25 "/></g></g></g></g></g></g></g></g></g></svg>